<svg preserveAspectRatio="none" width="100%" height="100%" overflow="visible" style="display: block;" viewBox="0 0 16 16" fill="none" xmlns="http://www.w3.org/2000/svg">
<g id="Delivery Courier">
<path id="Ellipse 126 (Stroke)" d="M4.66667 11.6667C4.66667 11.1144 4.21895 10.6667 3.66667 10.6667C3.11438 10.6667 2.66667 11.1144 2.66667 11.6667C2.66667 12.219 3.11438 12.6667 3.66667 12.6667V13.3333C2.74619 13.3333 2 12.5871 2 11.6667C2 10.7462 2.74619 10 3.66667 10C4.58714 10 5.33333 10.7462 5.33333 11.6667C5.33333 12.5871 4.58714 13.3333 3.66667 13.3333V12.6667C4.21895 12.6667 4.66667 12.219 4.66667 11.6667Z" fill="var(--fill-0, #181818)"/>
<path id="Ellipse 127 (Stroke)" d="M13.3333 11.6667C13.3333 11.1144 12.8856 10.6667 12.3333 10.6667C11.781 10.6667 11.3333 11.1144 11.3333 11.6667C11.3333 12.219 11.781 12.6667 12.3333 12.6667V13.3333C11.4129 13.3333 10.6667 12.5871 10.6667 11.6667C10.6667 10.7462 11.4129 10 12.3333 10C13.2538 10 14 10.7462 14 11.6667C14 12.5871 13.2538 13.3333 12.3333 13.3333V12.6667C12.8856 12.6667 13.3333 12.219 13.3333 11.6667Z" fill="var(--fill-0, #181818)"/>
<path id="Vector" d="M10.6667 3.33333V6H13.1888L13.2858 6.16211L15.2858 8.82878L15.3333 8.90755V12H13.6667V11.3333H14.6667V9.0918L12.8112 6.66667H10.6667V11.3333H11V12H5V11.3333H10V4H1.33333V11.3333H2.33333V12H0.666667V3.33333H10.6667Z" fill="var(--fill-0, #181818)"/>
</g>
</svg>
