<svg preserveAspectRatio="none" width="100%" height="100%" overflow="visible" style="display: block;" viewBox="0 0 40 40" fill="none" xmlns="http://www.w3.org/2000/svg">
<path id="Vector" d="M0 0V40H40V0H0ZM13.8576 19.3616C15.0278 19.6237 16.0992 20.2143 16.9462 21.064V23.5745H18.6334C18.9328 24.3601 19.0847 25.1943 19.0817 26.0351C19.0956 27.8052 18.4091 29.5088 17.1721 30.7735C16.5769 31.4275 15.8494 31.947 15.0379 32.2974C14.2264 32.6477 13.3496 32.8208 12.4661 32.8051C10.9167 32.8152 9.41775 32.2542 8.2549 31.229C7.05153 30.2383 6.22968 28.8594 5.93013 27.3286C5.92886 27.285 5.9233 27.2415 5.91352 27.1989C5.90259 27.1438 5.88817 27.0894 5.87035 27.036C5.8757 26.9818 5.8757 26.9273 5.87035 26.8731C5.85938 26.8206 5.85382 26.7671 5.85374 26.7135C5.83382 26.6137 5.82053 26.5173 5.81057 26.4175C5.80553 26.319 5.80553 26.2202 5.81057 26.1216C5.80885 24.4448 6.40473 22.8224 7.49105 21.5462C8.21653 20.6376 9.17845 19.9472 10.2708 19.5511V23.5047H13.8576V19.3616ZM3.41937 3.4175H10.2708V16.7447C9.31382 16.9628 8.39248 17.3154 7.53422 17.7921C5.98548 18.6517 4.71709 19.9401 3.881 21.503C3.71495 21.8355 3.56882 22.168 3.42601 22.5371L3.41937 3.4175ZM36.5806 36.5825H3.41937V29.4667C3.60598 29.9384 3.82802 30.3952 4.08359 30.8333C4.98684 32.3566 6.29386 33.5996 7.85969 34.4245C8.4212 34.7174 9.0124 34.9492 9.6232 35.1161C10.2303 35.28 10.8503 35.3912 11.4764 35.4486C11.6325 35.4686 11.7852 35.4819 11.9314 35.4919C12.0775 35.5018 12.2303 35.4919 12.3897 35.4919C14.2825 35.4944 16.139 34.9718 17.7533 33.9822C19.4268 32.9896 20.7244 31.4694 21.443 29.6595C21.6574 29.0946 21.8252 28.513 21.9445 27.9205C22.0616 27.3292 22.1205 26.7278 22.1205 26.1249C22.1249 25.2648 22.0132 24.408 21.7884 23.5779H23.5453V35.5185H36.584L36.5806 36.5825ZM23.542 16.3257V20.8379C23.3925 20.8379 23.2431 20.8379 23.0969 20.8379C22.8379 20.8379 22.5954 20.8379 22.3663 20.8379C22.1371 20.8379 21.8515 20.8379 21.5958 20.8379C21.3401 20.8379 21.0744 20.7681 20.8286 20.7681V7.37775C21.1109 7.37775 21.3965 7.37775 21.6921 7.37775C21.9877 7.37775 22.2999 7.36112 22.6353 7.36112C22.8379 7.36112 23.0438 7.36112 23.2497 7.36112C23.4556 7.36112 23.6582 7.3445 23.8641 7.3445H25.1726C25.4018 7.3445 25.621 7.3445 25.8368 7.37442C26.5535 7.41707 27.2667 7.50481 27.9723 7.63711C28.6373 7.75847 29.2793 7.98283 29.8753 8.30214C30.8619 8.82037 31.6818 9.60778 32.2399 10.5732C32.774 11.4873 33.0952 12.5102 33.1798 13.5658V14.4503C33.0681 15.9093 32.5181 17.3002 31.6023 18.4405C30.6569 19.6686 29.2742 20.3946 27.4542 20.6185L26.6505 20.7049V16.3257H23.542ZM36.5806 32.6921H26.6372V23.4648C27.5229 23.3917 28.4085 23.2808 29.2941 23.1323C30.8954 22.8802 32.4081 22.2309 33.6946 21.2436C34.8117 20.3882 35.7023 19.2716 36.2884 17.9916C36.3946 17.7622 36.4843 17.5294 36.5707 17.2967L36.5806 32.6921ZM36.5806 10.796C36.4843 10.54 36.3814 10.2839 36.2485 10.0312C35.6603 8.80179 34.7828 7.73375 33.6913 6.91888C32.5777 6.05645 31.2832 5.45841 29.9052 5.16985C28.4841 4.86463 27.0399 4.67998 25.5878 4.61788C25.073 4.59793 24.5914 4.58795 24.0899 4.58795H16.9462V17.556C16.6831 17.423 16.4126 17.3053 16.1359 17.2036C15.5342 16.9786 14.9141 16.8061 14.2827 16.6882C14.1432 16.6582 14.0037 16.635 13.8576 16.615V3.4175H36.5806V10.796Z" fill="var(--fill-0, #E8E8E8)"/>
</svg>
