<svg preserveAspectRatio="none" width="100%" height="100%" overflow="visible" style="display: block;" viewBox="0 0 16 16" fill="none" xmlns="http://www.w3.org/2000/svg">
<g id="Washing / Washing-30">
<g id="Vector">
<path fill-rule="evenodd" clip-rule="evenodd" d="M2.86999 3.81425H3.79668L3.79742 3.81388L3.79706 3.81299L3.8 3.81986C3.80995 3.84281 3.84247 3.91489 3.89855 4.01386C3.97395 4.14691 4.08906 4.3237 4.24665 4.4988C4.56112 4.84822 5.01932 5.16662 5.66667 5.16662C6.31401 5.16662 6.77221 4.84822 7.08669 4.4988C7.24427 4.3237 7.35939 4.14691 7.43478 4.01386C7.49086 3.91489 7.52338 3.84281 7.53333 3.81986L7.53641 3.81263L7.53605 3.81355L7.53665 3.81425H8.46335L8.46409 3.81388L8.46373 3.81299L8.46667 3.81986C8.47662 3.84281 8.50914 3.91489 8.56522 4.01386C8.64061 4.14691 8.75573 4.3237 8.91331 4.4988C9.22779 4.84822 9.68599 5.16662 10.3333 5.16662C10.9807 5.16662 11.4389 4.84822 11.7534 4.4988C11.9109 4.3237 12.0261 4.14691 12.1014 4.01386C12.1575 3.91489 12.1901 3.84281 12.2 3.81986L12.2029 3.81299L12.2026 3.81388L12.2033 3.81425H13.13L13.1308 3.81388L13.1304 3.81299L13.1333 3.81986C13.1433 3.84281 13.1758 3.91489 13.2319 4.01386C13.3073 4.14691 13.4224 4.3237 13.58 4.4988C13.8945 4.84822 14.3527 5.16662 15 5.16662V6.16662C13.9807 6.16662 13.2722 5.65168 12.8367 5.16777C12.7751 5.09936 12.7185 5.0311 12.6667 4.9643C12.6148 5.0311 12.5582 5.09936 12.4966 5.16777C12.0611 5.65168 11.3527 6.16662 10.3333 6.16662C9.31401 6.16662 8.60554 5.65168 8.17002 5.16777C8.10846 5.09936 8.05184 5.0311 8 4.9643C7.94816 5.0311 7.89154 5.09936 7.82998 5.16777C7.39446 5.65168 6.68599 6.16662 5.66667 6.16662C4.64734 6.16662 3.93888 5.65168 3.50335 5.16777C3.44179 5.09936 3.38518 5.0311 3.33333 4.9643C3.28149 5.0311 3.22488 5.09936 3.16331 5.16777C2.82998 5.53813 2.33676 5.92668 1.66667 6.08862C0.800354 6.29798 0.748292 5.29707 1.46654 5.10731C1.87547 4.99928 2.18715 4.75754 2.42002 4.4988C2.57761 4.3237 2.69272 4.14691 2.76811 4.01386C2.8242 3.91489 2.85672 3.84281 2.86666 3.81986L2.86974 3.81263L2.86938 3.81355L2.86999 3.81425ZM8.46345 3.8123L8.46373 3.81299Z" fill="var(--fill-0, #181818)"/>
<path fill-rule="evenodd" clip-rule="evenodd" d="M1.42698 2.76969L2.76909 12.5H13.2309L14.573 2.76969L15.5636 2.90633L14.162 13.0683L13.6667 13.5H2.33332L1.83801 13.0683L0.436361 2.90633L1.42698 2.76969Z" fill="var(--fill-0, #181818)"/>
<path d="M6.38448 8.84333C6.75248 8.90333 7.03448 9.04133 7.23048 9.25733C7.42648 9.46933 7.52448 9.73333 7.52448 10.0493C7.52448 10.2933 7.46048 10.5193 7.33248 10.7273C7.20448 10.9313 7.00848 11.0953 6.74448 11.2193C6.48448 11.3433 6.16448 11.4053 5.78448 11.4053C5.48848 11.4053 5.19648 11.3673 4.90848 11.2913C4.62448 11.2113 4.38248 11.0993 4.18248 10.9553L4.56048 10.2113C4.72048 10.3313 4.90448 10.4253 5.11248 10.4933C5.32448 10.5573 5.54048 10.5893 5.76048 10.5893C6.00448 10.5893 6.19648 10.5433 6.33648 10.4513C6.47648 10.3553 6.54648 10.2213 6.54648 10.0493C6.54648 9.70533 6.28448 9.53333 5.76048 9.53333H5.31648V8.89133L6.18048 7.91333H4.39248V7.13333H7.33248V7.76333L6.38448 8.84333Z" fill="var(--fill-0, #181818)"/>
<path d="M9.77326 11.4053C9.42526 11.4053 9.11526 11.3193 8.84326 11.1473C8.57126 10.9753 8.35726 10.7273 8.20126 10.4033C8.04926 10.0753 7.97326 9.68533 7.97326 9.23333C7.97326 8.78133 8.04926 8.39333 8.20126 8.06933C8.35726 7.74133 8.57126 7.49133 8.84326 7.31933C9.11526 7.14733 9.42526 7.06133 9.77326 7.06133C10.1213 7.06133 10.4313 7.14733 10.7033 7.31933C10.9753 7.49133 11.1873 7.74133 11.3393 8.06933C11.4953 8.39333 11.5733 8.78133 11.5733 9.23333C11.5733 9.68533 11.4953 10.0753 11.3393 10.4033C11.1873 10.7273 10.9753 10.9753 10.7033 11.1473C10.4313 11.3193 10.1213 11.4053 9.77326 11.4053ZM9.77326 10.5833C10.0293 10.5833 10.2293 10.4733 10.3733 10.2533C10.5213 10.0333 10.5953 9.69333 10.5953 9.23333C10.5953 8.77333 10.5213 8.43333 10.3733 8.21333C10.2293 7.99333 10.0293 7.88333 9.77326 7.88333C9.52126 7.88333 9.32126 7.99333 9.17326 8.21333C9.02926 8.43333 8.95726 8.77333 8.95726 9.23333C8.95726 9.69333 9.02926 10.0333 9.17326 10.2533C9.32126 10.4733 9.52126 10.5833 9.77326 10.5833Z" fill="var(--fill-0, #181818)"/>
</g>
</g>
</svg>
